<?xml version="1.0" encoding="utf-8"?>
<!-- Generator: Adobe Illustrator 16.0.0, SVG Export Plug-In . SVG Version: 6.00 Build 0)  -->
<!DOCTYPE svg PUBLIC "-//W3C//DTD SVG 1.1//EN" "http://www.w3.org/Graphics/SVG/1.1/DTD/svg11.dtd">
<svg version="1.1" id="Layer_1" xmlns="http://www.w3.org/2000/svg" xmlns:xlink="http://www.w3.org/1999/xlink" x="0px" y="0px"
	 width="400px" height="122.155px" viewBox="0 0 400 122.155" style="enable-background:new 0 0 400 122.155;" xml:space="preserve"
	>
<g>
	<path d="M0,18.867C11.12,7.241,26.786,0,44.145,0c33.733,0,61.077,27.345,61.077,61.078s-27.344,61.077-61.077,61.077
		c-12.956,0-24.969-4.033-34.853-10.913V74.273h19.884V56.582H9.292V36.97h23.176V18.867H0z"/>
	<g>
		<polygon style="fill-rule:evenodd;clip-rule:evenodd;" points="150.685,39.111 150.685,28.775 121.949,28.775 121.949,82.646 
			137.452,82.646 137.452,60.41 148.805,60.41 148.805,50.309 137.452,50.309 137.452,39.111 		"/>
		<path style="fill-rule:evenodd;clip-rule:evenodd;" d="M200.229,55.711c0-15.112-6.265-27.719-21.768-27.719
			c-15.583,0-21.924,12.606-21.924,27.719c0,15.19,6.341,27.718,21.924,27.718C193.965,83.429,200.229,70.902,200.229,55.711z
			 M184.491,55.163c0,8.378-0.783,16.992-6.029,16.992c-5.403,0-6.107-8.614-6.107-16.992c0-8.377,0.783-17.069,6.107-17.069
			C183.629,38.093,184.491,46.785,184.491,55.163z"/>
		<polygon style="fill-rule:evenodd;clip-rule:evenodd;" points="238.672,39.111 238.672,28.775 205.786,28.775 205.786,39.111 
			214.478,39.111 214.478,82.646 229.98,82.646 229.98,39.111 		"/>
		<path style="fill-rule:evenodd;clip-rule:evenodd;" d="M290.477,82.646l-17.147-53.871h-15.268l-17.148,53.871h13.701l2.585-9.24
			h14.954l2.429,9.24H290.477z M270.196,64.715h-10.805l4.307-16.129c0.939-3.602,1.252-6.5,1.252-6.5h0.158
			c0,0,0.234,2.898,1.096,6.5L270.196,64.715z"/>
		<polygon style="fill-rule:evenodd;clip-rule:evenodd;" points="338.942,82.646 324.223,53.44 337.848,28.775 322.188,28.775 
			310.521,52.735 310.364,52.735 310.364,28.775 294.938,28.775 294.938,82.646 310.364,82.646 310.364,56.573 310.521,56.573 
			321.718,82.646 		"/>
		<rect x="344.031" y="28.775" style="fill-rule:evenodd;clip-rule:evenodd;" width="15.504" height="53.871"/>
		<path style="fill-rule:evenodd;clip-rule:evenodd;" d="M400,66.046c0-5.873-1.487-11.353-11.745-16.286
			c-4.384-2.114-6.497-3.759-6.497-6.813c0-2.975,1.878-4.619,5.323-4.619c3.131,0,5.951,1.175,7.83,2.271l3.132-9.396
			c-2.661-1.723-7.125-3.21-13.39-3.21c-11.039,0-18.009,7.83-18.009,17.383c0,5.246,2.271,11.197,10.414,15.111
			c4.776,2.271,6.499,3.994,6.499,6.734c0,2.82-2.113,4.62-5.715,4.62c-3.445,0-6.734-1.331-8.301-2.505l-3.445,10.805
			c3.133,2.114,7.908,3.289,14.877,3.289C392.171,83.429,400,75.912,400,66.046z"/>
	</g>
	<g>
		<path style="fill-rule:evenodd;clip-rule:evenodd;" d="M136.645,105.705h-2.626l-5.088-6.049h-2.852v6.049h-2.021V90.492h4.26
			c0.92,0,1.687,0.061,2.299,0.184c0.613,0.116,1.165,0.327,1.656,0.633c0.551,0.348,0.98,0.787,1.286,1.318
			c0.313,0.524,0.47,1.192,0.47,2.002c0,1.097-0.274,2.017-0.826,2.759c-0.553,0.735-1.312,1.291-2.279,1.665L136.645,105.705z
			 M131.914,94.773c0-0.437-0.078-0.821-0.235-1.155c-0.15-0.34-0.401-0.627-0.756-0.858c-0.293-0.197-0.641-0.333-1.043-0.408
			c-0.4-0.082-0.875-0.123-1.419-0.123h-2.382v5.742h2.045c0.639,0,1.197-0.055,1.676-0.164c0.477-0.116,0.881-0.327,1.215-0.634
			c0.307-0.286,0.531-0.613,0.674-0.98C131.839,95.818,131.914,95.345,131.914,94.773z"/>
		<path style="fill-rule:evenodd;clip-rule:evenodd;" d="M154.722,99.595c0,1.104-0.123,2.067-0.367,2.891
			c-0.238,0.818-0.635,1.5-1.186,2.043c-0.524,0.519-1.138,0.896-1.84,1.134c-0.701,0.238-1.52,0.357-2.451,0.357
			c-0.955,0-1.785-0.125-2.494-0.377c-0.708-0.252-1.305-0.623-1.787-1.114c-0.553-0.558-0.951-1.232-1.195-2.022
			c-0.238-0.791-0.358-1.761-0.358-2.912v-9.104h2.023v9.206c0,0.824,0.054,1.475,0.163,1.952c0.115,0.477,0.306,0.909,0.572,1.297
			c0.3,0.443,0.705,0.777,1.217,1.001c0.517,0.225,1.137,0.337,1.859,0.337c0.728,0,1.348-0.109,1.859-0.327
			c0.51-0.225,0.919-0.562,1.227-1.012c0.266-0.388,0.451-0.83,0.561-1.328c0.116-0.504,0.174-1.127,0.175-1.87v-9.256h2.022V99.595
			z"/>
		<path style="fill-rule:evenodd;clip-rule:evenodd;" d="M175.937,104.582c-0.832,0.381-1.741,0.715-2.729,1.001
			c-0.98,0.279-1.931,0.418-2.851,0.419c-1.185,0-2.271-0.164-3.259-0.49c-0.988-0.327-1.829-0.817-2.523-1.472
			c-0.702-0.661-1.243-1.485-1.625-2.473c-0.382-0.994-0.573-2.155-0.573-3.484c0-2.432,0.709-4.349,2.127-5.752
			c1.423-1.41,3.375-2.116,5.854-2.116c0.865,0,1.748,0.106,2.646,0.318c0.906,0.204,1.88,0.555,2.923,1.052v2.4h-0.185
			c-0.211-0.163-0.518-0.377-0.92-0.643c-0.402-0.266-0.797-0.487-1.185-0.665c-0.47-0.211-1.005-0.385-1.604-0.521
			c-0.592-0.143-1.267-0.215-2.023-0.215c-1.703,0-3.052,0.549-4.045,1.646c-0.988,1.09-1.482,2.567-1.482,4.434
			c0,1.969,0.518,3.501,1.554,4.598c1.035,1.09,2.445,1.635,4.229,1.635c0.654,0,1.305-0.064,1.951-0.194
			c0.654-0.129,1.227-0.296,1.718-0.501V99.83h-4.077v-1.777h6.08V104.582z"/>
		<path style="fill-rule:evenodd;clip-rule:evenodd;" d="M195.188,101.363c0,0.593-0.14,1.178-0.419,1.758
			c-0.272,0.579-0.658,1.069-1.154,1.471c-0.545,0.436-1.182,0.776-1.911,1.022c-0.722,0.245-1.594,0.367-2.616,0.367
			c-1.096,0-2.083-0.102-2.962-0.306c-0.872-0.204-1.762-0.508-2.667-0.909v-2.534h0.144c0.77,0.641,1.657,1.134,2.667,1.482
			c1.008,0.347,1.954,0.521,2.84,0.521c1.254,0,2.227-0.234,2.922-0.705c0.701-0.47,1.052-1.097,1.053-1.88
			c0-0.674-0.168-1.172-0.501-1.492c-0.327-0.319-0.828-0.569-1.501-0.745c-0.512-0.136-1.066-0.249-1.666-0.338
			c-0.594-0.088-1.224-0.201-1.891-0.337c-1.349-0.286-2.35-0.773-3.004-1.461c-0.646-0.695-0.971-1.597-0.971-2.708
			c0-1.273,0.537-2.315,1.614-3.126c1.075-0.817,2.441-1.227,4.098-1.227c1.069,0,2.05,0.103,2.942,0.307s1.683,0.457,2.37,0.756
			v2.391h-0.144c-0.578-0.49-1.341-0.896-2.287-1.215c-0.94-0.328-1.905-0.49-2.893-0.49c-1.083,0-1.955,0.225-2.615,0.674
			c-0.654,0.45-0.98,1.029-0.98,1.737c0,0.634,0.162,1.132,0.489,1.492c0.328,0.361,0.902,0.637,1.728,0.828
			c0.436,0.096,1.055,0.211,1.859,0.348c0.804,0.136,1.484,0.275,2.043,0.418c1.131,0.3,1.982,0.753,2.555,1.359
			S195.188,100.273,195.188,101.363z"/>
		<path style="fill-rule:evenodd;clip-rule:evenodd;" d="M227.112,105.705h-2.156l-1.492-4.24h-6.58l-1.492,4.24h-2.053
			l5.537-15.213h2.698L227.112,105.705z M222.841,99.728l-2.668-7.469l-2.677,7.469H222.841z"/>
		<polygon style="fill-rule:evenodd;clip-rule:evenodd;" points="245.688,105.705 243.187,105.705 235.973,92.095 235.973,105.705 
			234.082,105.705 234.082,90.492 237.219,90.492 243.8,102.916 243.8,90.492 245.688,90.492 		"/>
		<path style="fill-rule:evenodd;clip-rule:evenodd;" d="M267.25,98.113c0,1.383-0.304,2.636-0.909,3.76
			c-0.6,1.125-1.399,1.997-2.4,2.617c-0.695,0.428-1.472,0.739-2.33,0.929c-0.852,0.191-1.975,0.287-3.372,0.287h-3.841V90.492
			h3.801c1.484,0,2.662,0.108,3.535,0.327c0.879,0.211,1.621,0.504,2.228,0.878c1.035,0.647,1.841,1.509,2.421,2.585
			C266.961,95.359,267.25,96.635,267.25,98.113z M265.136,98.083c0-1.192-0.209-2.196-0.624-3.014s-1.035-1.461-1.859-1.931
			c-0.599-0.34-1.237-0.575-1.91-0.705c-0.675-0.136-1.481-0.204-2.422-0.204h-1.899v11.74h1.899c0.974,0,1.821-0.072,2.544-0.214
			c0.729-0.143,1.396-0.409,2.003-0.797c0.757-0.483,1.321-1.121,1.696-1.91C264.944,100.256,265.136,99.268,265.136,98.083z"/>
		<polygon style="fill-rule:evenodd;clip-rule:evenodd;" points="296.917,92.289 289.223,92.289 289.223,96.581 295.833,96.581 
			295.833,98.379 289.223,98.379 289.223,105.705 287.199,105.705 287.199,90.492 296.917,90.492 		"/>
		<polygon style="fill-rule:evenodd;clip-rule:evenodd;" points="313.512,105.705 303.887,105.705 303.887,90.492 305.91,90.492 
			305.91,103.906 313.512,103.906 		"/>
		<path style="fill-rule:evenodd;clip-rule:evenodd;" d="M331.538,92.238c0.619,0.682,1.092,1.516,1.42,2.503
			c0.334,0.988,0.5,2.108,0.5,3.361c0,1.254-0.17,2.377-0.51,3.372c-0.335,0.988-0.805,1.813-1.41,2.473
			c-0.627,0.689-1.369,1.207-2.229,1.553c-0.85,0.348-1.825,0.521-2.922,0.521c-1.068,0-2.043-0.177-2.922-0.531
			c-0.872-0.354-1.614-0.868-2.228-1.543c-0.613-0.674-1.086-1.502-1.421-2.482c-0.326-0.981-0.489-2.101-0.489-3.362
			c0-1.239,0.163-2.349,0.489-3.33c0.327-0.988,0.805-1.833,1.432-2.535c0.599-0.667,1.341-1.178,2.228-1.533
			c0.892-0.354,1.862-0.53,2.911-0.531c1.09,0,2.066,0.181,2.933,0.541C330.192,91.07,330.931,91.578,331.538,92.238z
			 M331.354,98.103c0-1.975-0.443-3.498-1.328-4.566c-0.887-1.076-2.096-1.615-3.628-1.615c-1.547,0-2.763,0.539-3.647,1.615
			c-0.879,1.069-1.318,2.592-1.318,4.566c0,1.997,0.449,3.525,1.349,4.588c0.899,1.057,2.104,1.584,3.617,1.584
			c1.512,0,2.715-0.527,3.606-1.584C330.905,101.628,331.354,100.1,331.354,98.103z"/>
		<path style="fill-rule:evenodd;clip-rule:evenodd;" d="M352.671,92.238c0.619,0.682,1.092,1.516,1.419,2.503
			c0.333,0.988,0.5,2.108,0.501,3.361c0,1.254-0.17,2.377-0.512,3.372c-0.333,0.988-0.803,1.813-1.408,2.473
			c-0.628,0.689-1.37,1.207-2.229,1.553c-0.852,0.348-1.825,0.521-2.923,0.521c-1.069,0-2.043-0.177-2.922-0.531
			c-0.871-0.354-1.614-0.868-2.227-1.543c-0.613-0.674-1.087-1.502-1.421-2.482c-0.326-0.981-0.49-2.101-0.49-3.362
			c0-1.239,0.164-2.349,0.49-3.33c0.327-0.988,0.804-1.833,1.43-2.535c0.601-0.667,1.343-1.178,2.229-1.533
			c0.892-0.354,1.863-0.53,2.911-0.531c1.091,0,2.067,0.181,2.934,0.541C351.324,91.07,352.063,91.578,352.671,92.238z
			 M352.485,98.103c0-1.975-0.442-3.498-1.328-4.566c-0.885-1.076-2.095-1.615-3.627-1.615c-1.546,0-2.762,0.539-3.647,1.615
			c-0.879,1.069-1.317,2.592-1.317,4.566c0,1.997,0.449,3.525,1.348,4.588c0.899,1.057,2.105,1.584,3.617,1.584
			c1.513,0,2.715-0.527,3.606-1.584C352.036,101.628,352.485,100.1,352.485,98.103z"/>
		<path style="fill-rule:evenodd;clip-rule:evenodd;" d="M375.048,105.705h-2.626l-5.087-6.049h-2.852v6.049h-2.022V90.492h4.261
			c0.919,0,1.686,0.061,2.298,0.184c0.613,0.116,1.165,0.327,1.656,0.633c0.551,0.348,0.98,0.787,1.286,1.318
			c0.314,0.524,0.471,1.192,0.471,2.002c0,1.097-0.275,2.017-0.827,2.759c-0.552,0.735-1.312,1.291-2.278,1.665L375.048,105.705z
			 M370.317,94.773c0-0.437-0.078-0.821-0.234-1.155c-0.15-0.34-0.402-0.627-0.756-0.858c-0.293-0.197-0.641-0.333-1.042-0.408
			c-0.402-0.082-0.876-0.123-1.421-0.123h-2.381v5.742h2.044c0.64,0,1.198-0.055,1.676-0.164c0.477-0.116,0.882-0.327,1.215-0.634
			c0.308-0.286,0.531-0.613,0.675-0.98C370.242,95.818,370.317,95.345,370.317,94.773z"/>
		<path style="fill-rule:evenodd;clip-rule:evenodd;" d="M392.727,101.363c0,0.593-0.14,1.178-0.418,1.758
			c-0.273,0.579-0.657,1.069-1.155,1.471c-0.545,0.436-1.182,0.776-1.911,1.022c-0.722,0.245-1.594,0.367-2.616,0.367
			c-1.096,0-2.083-0.102-2.962-0.306c-0.872-0.204-1.761-0.508-2.667-0.909v-2.534h0.144c0.77,0.641,1.659,1.134,2.667,1.482
			c1.008,0.347,1.954,0.521,2.84,0.521c1.254,0,2.228-0.234,2.923-0.705c0.7-0.47,1.052-1.097,1.052-1.88
			c0-0.674-0.168-1.172-0.501-1.492c-0.327-0.319-0.827-0.569-1.501-0.745c-0.512-0.136-1.066-0.249-1.666-0.338
			c-0.592-0.088-1.223-0.201-1.891-0.337c-1.349-0.286-2.35-0.773-3.004-1.461c-0.646-0.695-0.97-1.597-0.97-2.708
			c0-1.273,0.538-2.315,1.613-3.126c1.077-0.817,2.441-1.227,4.098-1.227c1.069,0,2.05,0.103,2.942,0.307s1.683,0.457,2.371,0.756
			v2.391h-0.143c-0.58-0.49-1.343-0.896-2.289-1.215c-0.94-0.328-1.904-0.49-2.893-0.49c-1.083,0-1.954,0.225-2.615,0.674
			c-0.654,0.45-0.98,1.029-0.98,1.737c0,0.634,0.164,1.132,0.49,1.492c0.327,0.361,0.902,0.637,1.727,0.828
			c0.436,0.096,1.057,0.211,1.859,0.348c0.804,0.136,1.484,0.275,2.043,0.418c1.132,0.3,1.982,0.753,2.555,1.359
			C392.441,99.424,392.727,100.273,392.727,101.363z"/>
	</g>
</g>
</svg>
